<svg xmlns="http://www.w3.org/2000/svg" viewBox="0 0 1000.14 173.23"><path d="M377.58 20.57h-21.8l-59.44 136.75h24.92l45.23-106 45.41 106H437ZM531.76 98.08A37.93 37.93 0 0 0 552.05 85c5.3-6.73 8-15 8-24.5 0-11.5-4.12-21-12.23-28.36-7.95-7.17-19.08-10.8-33.06-10.8h-62.09v136H476V43h37.38c7.31 0 13.07 1.64 17.1 4.89s6 7.61 6 13.39c0 6-1.94 10.53-6 13.77s-9.79 4.89-17.1 4.89h-21.82l14 20.89 37.76 56.5h28.26ZM575.29 42.99h44.09v114.33h23.38V42.99h44.28V21.33H575.29v21.66zM708.52 21.33h23.38v135.99h-23.38zM853.2 100.4c0 12-3.07 21.29-9.13 27.72s-14.38 9.64-24.8 9.64-18.74-3.24-24.71-9.64-9-15.75-9-27.72V21.33h-23.41v78.3c0 19.08 5.32 34.07 15.83 44.57 10.74 10.35 24.63 15.6 41.29 15.6s30.55-5.31 41.3-15.8 16-25.42 16-44.37v-78.3H853.2ZM980.63 86.76a130.28 130.28 0 0 0-24.67-10l-15.23-4.37-3.79-1.39c-1.72-.62-3.31-1.22-4.72-1.8a17.79 17.79 0 0 1-3-1.49c-4.86-3.43-7.32-7.15-7.32-11 0-4.71 2.11-8.41 6.44-11.32s11-4.48 19.66-4.48c14.34 0 28.39 4.12 41.76 12.24l1.81 1.09v-23.8l-.58-.35c-12.48-7.46-27.07-11.24-43.37-11.24-15.08 0-27.24 3.42-36.12 10.17s-13.56 16.07-13.56 27.48c0 12.59 4.81 22 14.34 27.94a92.61 92.61 0 0 0 13.53 6.76c4.34 1.67 10.22 3.54 17.47 5.57l2.67.77c8.42 2.38 14.52 4.48 18.19 6.25a23 23 0 0 1 6.55 3.8 14.66 14.66 0 0 1 5.51 11.51c0 5.72-2.66 10.14-8.12 13.5s-12.84 5.16-21.61 5.16a76.87 76.87 0 0 1-27.06-5.07c-9-3.49-16.12-7.53-21.21-12l-2-1.74v26l.49.36c13.25 9.65 30.38 14.54 50.9 14.54 14.83 0 27.39-3.67 37.35-10.91s15.19-17.48 15.18-30.23c-.76-14.71-7.33-25.41-19.49-31.95Z"/><path d="M263 159.51a27.9 27.9 0 0 1-27.23-21.85l-22.6-102.09a18 18 0 0 1 17.55-21.86L227.67 0H38.38l-3 13.71a18 18 0 0 1 18 17.93 18.35 18.35 0 0 1-.44 3.93L30.27 137.66a27.88 27.88 0 0 1-27.22 21.85L0 173.23h97.7l3-13.72a18 18 0 0 1-18-17.93 18.22 18.22 0 0 1 .42-3.92L105.8 35.57a27.88 27.88 0 0 1 54.45 0l22.62 102.09a18 18 0 0 1-17.54 21.85l3 13.72h97.69Zm-205.53-1.59h-10.6L78 17.62h10.54Zm150 0-31.04-140.3H187l31.07 140.3Z" style="fill:#ff2832"/></svg>
